<!DOCTYPE svg PUBLIC "-//W3C//DTD SVG 1.1//EN" "http://www.w3.org/Graphics/SVG/1.1/DTD/svg11.dtd">
<!-- Uploaded to: SVG Repo, www.svgrepo.com, Transformed by: SVG Repo Mixer Tools -->
<svg fill="#51af6c" width="64px" height="64px" viewBox="-3.2 -3.2 38.40 38.40" xmlns="http://www.w3.org/2000/svg" transform="rotate(0)">
<g id="SVGRepo_bgCarrier" stroke-width="0"/>
<g id="SVGRepo_tracerCarrier" stroke-linecap="round" stroke-linejoin="round" stroke="#CCCCCC" stroke-width="1.216"/>
<g id="SVGRepo_iconCarrier"> <title/> <g data-name="Layer 9" id="Layer_9"> <path d="M25.05,7.64,21.36,4a3.21,3.21,0,0,0-2.29-1H9.24A3.25,3.25,0,0,0,6,6.24V25.76A3.25,3.25,0,0,0,9.24,29H22.76A3.25,3.25,0,0,0,26,25.76V9.93A3.21,3.21,0,0,0,25.05,7.64ZM23.59,9H20V5.41ZM24,25.76A1.25,1.25,0,0,1,22.76,27H9.24A1.25,1.25,0,0,1,8,25.76V6.24A1.25,1.25,0,0,1,9.24,5H18v5a1,1,0,0,0,1,1h5Z"/> <path d="M13,16.29a1,1,0,0,0-1.42,1.42l2.5,2.5a1,1,0,0,0,1.42,0l5-5A1,1,0,0,0,19,13.79l-4.29,4.3Z"/> </g> </g>
</svg>